<svg id="visual" viewBox="0 0 540 960" width="540" height="960" xmlns="http://www.w3.org/2000/svg" xmlns:xlink="http://www.w3.org/1999/xlink" version="1.1"><path d="M0 116L60 59L120 97L180 78L240 116L300 135L360 116L420 59L480 135L540 49L540 0L480 0L420 0L360 0L300 0L240 0L180 0L120 0L60 0L0 0Z" fill="#22323f"></path><path d="M0 385L60 327L120 395L180 433L240 375L300 452L360 279L420 385L480 366L540 500L540 47L480 133L420 57L360 114L300 133L240 114L180 76L120 95L60 57L0 114Z" fill="#263948"></path><path d="M0 596L60 491L120 625L180 567L240 587L300 596L360 433L420 510L480 539L540 606L540 498L480 364L420 383L360 277L300 450L240 373L180 431L120 393L60 325L0 383Z" fill="#2b4051"></path><path d="M0 673L60 587L120 711L180 683L240 663L300 683L360 567L420 606L480 692L540 702L540 604L480 537L420 508L360 431L300 594L240 585L180 565L120 623L60 489L0 594Z" fill="#344a5d"></path><path d="M0 807L60 654L120 827L180 817L240 711L300 731L360 663L420 711L480 779L540 798L540 700L480 690L420 604L360 565L300 681L240 661L180 681L120 709L60 585L0 671Z" fill="#42586c"></path><path d="M0 961L60 961L120 961L180 961L240 961L300 961L360 961L420 961L480 961L540 961L540 796L480 777L420 709L360 661L300 729L240 709L180 815L120 825L60 652L0 805Z" fill="#50677b"></path></svg>